<mxfile host="app.diagrams.net" agent="Mozilla/5.0 (Windows NT 10.0; Win64; x64) AppleWebKit/537.36 (KHTML, like Gecko) Chrome/132.0.0.0 Safari/537.36" version="26.0.10">
  <diagram name="Pagina-1" id="JXRDOgONOoSROQXfmQ7S">
    <mxGraphModel dx="1050" dy="565" grid="1" gridSize="10" guides="1" tooltips="1" connect="1" arrows="1" fold="1" page="1" pageScale="1" pageWidth="827" pageHeight="1169" math="0" shadow="0">
      <root>
        <mxCell id="0" />
        <mxCell id="1" parent="0" />
        <mxCell id="heFnyXYFYH1ORWrQ9SHi-5" value="Alarmklok" style="swimlane;whiteSpace=wrap;html=1;" vertex="1" parent="1">
          <mxGeometry x="220" y="30" width="410" height="410" as="geometry" />
        </mxCell>
        <mxCell id="heFnyXYFYH1ORWrQ9SHi-2" value="Operationele taken uitvoeren." style="ellipse;whiteSpace=wrap;html=1;" vertex="1" parent="heFnyXYFYH1ORWrQ9SHi-5">
          <mxGeometry x="74" y="85" width="120" height="80" as="geometry" />
        </mxCell>
        <mxCell id="heFnyXYFYH1ORWrQ9SHi-3" value="Alarm instellen" style="ellipse;whiteSpace=wrap;html=1;" vertex="1" parent="heFnyXYFYH1ORWrQ9SHi-5">
          <mxGeometry x="240" y="280" width="120" height="80" as="geometry" />
        </mxCell>
        <mxCell id="heFnyXYFYH1ORWrQ9SHi-4" value="Tijd instellen" style="ellipse;whiteSpace=wrap;html=1;" vertex="1" parent="heFnyXYFYH1ORWrQ9SHi-5">
          <mxGeometry x="240" y="165" width="120" height="80" as="geometry" />
        </mxCell>
        <mxCell id="heFnyXYFYH1ORWrQ9SHi-12" value="Instellingen aanpassen" style="ellipse;whiteSpace=wrap;html=1;" vertex="1" parent="heFnyXYFYH1ORWrQ9SHi-5">
          <mxGeometry x="74" y="220" width="120" height="80" as="geometry" />
        </mxCell>
        <mxCell id="heFnyXYFYH1ORWrQ9SHi-15" value="" style="endArrow=none;dashed=1;html=1;dashPattern=1 3;strokeWidth=2;rounded=0;entryX=0;entryY=0.5;entryDx=0;entryDy=0;" edge="1" parent="heFnyXYFYH1ORWrQ9SHi-5" source="heFnyXYFYH1ORWrQ9SHi-12" target="heFnyXYFYH1ORWrQ9SHi-4">
          <mxGeometry width="50" height="50" relative="1" as="geometry">
            <mxPoint x="170" y="290" as="sourcePoint" />
            <mxPoint x="220" y="240" as="targetPoint" />
          </mxGeometry>
        </mxCell>
        <mxCell id="heFnyXYFYH1ORWrQ9SHi-22" value="Include" style="edgeLabel;html=1;align=center;verticalAlign=middle;resizable=0;points=[];" vertex="1" connectable="0" parent="heFnyXYFYH1ORWrQ9SHi-15">
          <mxGeometry x="0.1566" y="-3" relative="1" as="geometry">
            <mxPoint as="offset" />
          </mxGeometry>
        </mxCell>
        <mxCell id="heFnyXYFYH1ORWrQ9SHi-21" value="" style="endArrow=none;dashed=1;html=1;dashPattern=1 3;strokeWidth=2;rounded=0;entryX=0;entryY=0.5;entryDx=0;entryDy=0;" edge="1" parent="heFnyXYFYH1ORWrQ9SHi-5" source="heFnyXYFYH1ORWrQ9SHi-12" target="heFnyXYFYH1ORWrQ9SHi-3">
          <mxGeometry width="50" height="50" relative="1" as="geometry">
            <mxPoint x="200" y="290" as="sourcePoint" />
            <mxPoint x="250" y="240" as="targetPoint" />
          </mxGeometry>
        </mxCell>
        <mxCell id="heFnyXYFYH1ORWrQ9SHi-23" value="Include" style="edgeLabel;html=1;align=center;verticalAlign=middle;resizable=0;points=[];" vertex="1" connectable="0" parent="heFnyXYFYH1ORWrQ9SHi-21">
          <mxGeometry x="-0.079" relative="1" as="geometry">
            <mxPoint as="offset" />
          </mxGeometry>
        </mxCell>
        <mxCell id="heFnyXYFYH1ORWrQ9SHi-17" value="Gebruiker" style="shape=umlActor;verticalLabelPosition=bottom;verticalAlign=top;html=1;outlineConnect=0;" vertex="1" parent="1">
          <mxGeometry x="100" y="215" width="30" height="60" as="geometry" />
        </mxCell>
        <mxCell id="heFnyXYFYH1ORWrQ9SHi-19" value="" style="endArrow=none;html=1;rounded=0;entryX=0;entryY=0.5;entryDx=0;entryDy=0;" edge="1" parent="1" source="heFnyXYFYH1ORWrQ9SHi-17" target="heFnyXYFYH1ORWrQ9SHi-2">
          <mxGeometry width="50" height="50" relative="1" as="geometry">
            <mxPoint x="390" y="320" as="sourcePoint" />
            <mxPoint x="440" y="270" as="targetPoint" />
          </mxGeometry>
        </mxCell>
        <mxCell id="heFnyXYFYH1ORWrQ9SHi-20" value="" style="endArrow=none;html=1;rounded=0;entryX=0;entryY=0.5;entryDx=0;entryDy=0;" edge="1" parent="1" source="heFnyXYFYH1ORWrQ9SHi-17" target="heFnyXYFYH1ORWrQ9SHi-12">
          <mxGeometry width="50" height="50" relative="1" as="geometry">
            <mxPoint x="390" y="320" as="sourcePoint" />
            <mxPoint x="440" y="270" as="targetPoint" />
          </mxGeometry>
        </mxCell>
      </root>
    </mxGraphModel>
  </diagram>
</mxfile>
